<svg width="16" height="15" viewBox="0 0 16 15" fill="none" xmlns="http://www.w3.org/2000/svg">
<path d="M14 7.5C14 7.62432 13.9473 7.74355 13.8536 7.83146C13.7598 7.91936 13.6326 7.96875 13.5 7.96875H8.5V12.6562C8.5 12.7806 8.44732 12.8998 8.35355 12.9877C8.25979 13.0756 8.13261 13.125 8 13.125C7.86739 13.125 7.74021 13.0756 7.64645 12.9877C7.55268 12.8998 7.5 12.7806 7.5 12.6562V7.96875H2.5C2.36739 7.96875 2.24021 7.91936 2.14645 7.83146C2.05268 7.74355 2 7.62432 2 7.5C2 7.37568 2.05268 7.25645 2.14645 7.16854C2.24021 7.08064 2.36739 7.03125 2.5 7.03125H7.5V2.34375C7.5 2.21943 7.55268 2.1002 7.64645 2.01229C7.74021 1.92439 7.86739 1.875 8 1.875C8.13261 1.875 8.25979 1.92439 8.35355 2.01229C8.44732 2.1002 8.5 2.21943 8.5 2.34375V7.03125H13.5C13.6326 7.03125 13.7598 7.08064 13.8536 7.16854C13.9473 7.25645 14 7.37568 14 7.5Z" fill="white"/>
</svg>
