<svg width="23" height="25" viewBox="0 0 23 25" fill="none" xmlns="http://www.w3.org/2000/svg">
<path opacity="0.8" d="M21.0833 8.33333H1.91667C1.40834 8.33333 0.920823 8.55283 0.561379 8.94353C0.201934 9.33423 0 9.86413 0 10.4167V22.9167C0 23.4692 0.201934 23.9991 0.561379 24.3898C0.920823 24.7805 1.40834 25 1.91667 25H21.0833C21.5917 25 22.0792 24.7805 22.4386 24.3898C22.7981 23.9991 23 23.4692 23 22.9167V10.4167C23 9.86413 22.7981 9.33423 22.4386 8.94353C22.0792 8.55283 21.5917 8.33333 21.0833 8.33333ZM21.0833 22.9167H1.91667V10.4167H21.0833V22.9167ZM1.91667 5.20833C1.91667 4.93207 2.01763 4.66711 2.19736 4.47176C2.37708 4.27641 2.62083 4.16667 2.875 4.16667H20.125C20.3792 4.16667 20.6229 4.27641 20.8026 4.47176C20.9824 4.66711 21.0833 4.93207 21.0833 5.20833C21.0833 5.4846 20.9824 5.74955 20.8026 5.9449C20.6229 6.14025 20.3792 6.25 20.125 6.25H2.875C2.62083 6.25 2.37708 6.14025 2.19736 5.9449C2.01763 5.74955 1.91667 5.4846 1.91667 5.20833ZM3.83333 1.04167C3.83333 0.7654 3.9343 0.500447 4.11402 0.305097C4.29375 0.109747 4.5375 0 4.79167 0H18.2083C18.4625 0 18.7063 0.109747 18.886 0.305097C19.0657 0.500447 19.1667 0.7654 19.1667 1.04167C19.1667 1.31793 19.0657 1.58289 18.886 1.77824C18.7063 1.97359 18.4625 2.08333 18.2083 2.08333H4.79167C4.5375 2.08333 4.29375 1.97359 4.11402 1.77824C3.9343 1.58289 3.83333 1.31793 3.83333 1.04167Z" fill="#969696"/>
</svg>
